<svg width="144" height="144" viewBox="0 0 144 144" fill="none" xmlns="http://www.w3.org/2000/svg">
<path d="M70.2056 0.0919615C73.5587 -0.203962 77.8384 0.271824 81.1475 0.703931C94.8933 2.37636 107.79 7.76803 118.205 16.1955C133.467 28.5365 142.702 46.0074 143.833 64.6804C145.167 83.0824 138.46 101.212 125.203 115.038C117.458 123.253 107.638 129.589 96.6076 133.486C89.0937 136.166 82.374 137.304 74.336 137.765C56.5428 138.158 39.2466 132.341 25.9176 121.481C15.8501 113.352 8.27005 102.937 3.93169 91.2727C-8.30977 57.3183 8.86338 20.2914 43.9221 5.57146C52.3686 2.02506 61.0194 0.554332 70.2056 0.0919615Z" fill="#00171F"/>
<path d="M68.8242 5.36672C73.9389 4.78523 80.2882 5.66482 85.2739 6.56382C95.9917 8.49623 105.368 12.8547 113.761 19.2552C143.129 41.6537 147.341 82.9916 122.97 110.015C111.046 123.258 95.548 130.859 76.9249 132.502C59.9134 133.422 43.196 128.11 30.4126 117.72C22.8638 111.692 17.1233 104.6 12.8535 96.276C-7.31451 56.9601 20.6029 8.52674 68.8242 5.36672Z" fill="url(#paint0_linear_204_5835)"/>
<path d="M79.2705 16.638C106.78 15.2657 130.193 36.4538 131.565 63.9628C132.937 91.4718 111.749 114.885 84.2399 116.257C56.7311 117.629 33.3182 96.4412 31.9459 68.9322C30.5736 41.4232 51.7616 18.0105 79.2705 16.638Z" fill="#00171F"/>
<path d="M66.1324 47.0815C68.8514 46.9275 70.5042 47.0562 72.6783 48.9438C77.0679 52.7549 78.6853 58.7934 79.0495 64.3772C79.469 70.8107 78.5621 78.7203 74.1192 83.7433C72.5304 85.5396 71.1686 86.7462 68.7536 86.9315C67.4299 87.2158 64.9675 86.8845 63.8797 86.1476C56.4069 81.084 54.716 68.4713 56.5262 60.4118C57.7269 55.0666 60.5615 48.5532 66.1324 47.0815Z" fill="#36EFFF"/>
<path d="M109.74 48.6211C121.222 47.7262 123.67 81.2878 110.979 84.8389C99.2508 84.913 97.5182 52.6295 109.74 48.6211Z" fill="#36EFFF"/>
<path d="M91.9 137.585C95.6949 137.363 100.928 136.577 104.356 136.855C110.688 137.369 123.349 138.265 123.043 140.178C118.629 143.206 88.1913 143.94 76.2061 143.994C61.7609 144.059 40.0302 143.668 27.6119 141.871C11.0856 139.479 32.3563 137.18 42.3727 136.749C43.8187 136.785 47.3707 137.193 48.9867 137.329C50.4854 137.455 51.002 137.489 52.6398 137.567C50.0535 137.738 43.8548 138.248 43.0795 138.904C42.1472 139.693 49.4962 140.339 51.9585 140.489C65.8332 141.337 80.7285 141.305 94.4905 140.362C96.117 140.251 98.8676 139.849 100.362 139.647C100.619 139.524 100.882 139.396 101.016 139.262C101.242 139.033 101.063 138.792 100.517 138.592C99.2235 138.128 94.2485 137.698 91.9 137.585Z" fill="#00171F"/>
<defs>
<linearGradient id="paint0_linear_204_5835" x1="72.5287" y1="5.17969" x2="72.5287" y2="132.604" gradientUnits="userSpaceOnUse">
<stop stop-color="#77E877"/>
<stop offset="1" stop-color="#00CE7C"/>
</linearGradient>
</defs>
</svg>
